<?xml version="1.0" encoding="iso-8859-1"?>
<!-- Generator: Adobe Illustrator 19.0.0, SVG Export Plug-In . SVG Version: 6.00 Build 0)  -->
<svg version="1.1" id="Capa_1" xmlns="http://www.w3.org/2000/svg" xmlns:xlink="http://www.w3.org/1999/xlink" x="0px" y="0px"
	 viewBox="0 0 392.239 392.239" style="enable-background:new 0 0 392.239 392.239;" xml:space="preserve" fill="#a786be">
<g>
	<g>
		<path d="M198.039,9.947c-4.08-3.881-9.489-6.055-15.12-6.08c-5.066,0.115-9.955,1.885-13.92,5.04
			c-3.943-3.139-8.802-4.908-13.84-5.04c-5.716,0.103-11.168,2.427-15.2,6.48c-5.294,4.912-7.76,12.159-6.56,19.28
			c2.32,16.56,20.48,33.04,32,38.8c2.264,1.141,4.936,1.141,7.2,0c11.52-5.84,29.68-22.32,32-39.2
			C205.799,22.106,203.333,14.859,198.039,9.947z M188.839,26.987c-3.519,10.324-10.501,19.114-19.76,24.88
			c-9.327-5.782-16.344-14.638-19.84-25.04c-0.438-1.871,0.175-3.832,1.6-5.12c1.114-1.254,2.653-2.052,4.32-2.24
			c2.984,0.632,5.616,2.377,7.36,4.88c1.511,2.067,3.92,3.287,6.48,3.28c2.56,0.007,4.969-1.213,6.48-3.28
			c1.769-2.514,4.429-4.259,7.44-4.88c1.667,0.188,3.206,0.986,4.32,2.24C188.707,23.037,189.322,25.067,188.839,26.987z"/>
	</g>
</g>
<g>
	<g>
		<path d="M263.239,49.387c-4.032-4.053-9.484-6.377-15.2-6.48c-5.065,0.121-9.952,1.89-13.92,5.04c-3.99-3.166-8.908-4.937-14-5.04
			c-5.716,0.103-11.168,2.427-15.2,6.48c-5.294,4.912-7.76,12.159-6.56,19.28c2.56,16.88,20.72,33.36,32.24,39.2
			c1.115,0.571,2.348,0.872,3.6,0.88c1.252-0.008,2.485-0.309,3.6-0.88c11.52-5.84,29.68-22.32,32-39.2
			C270.999,61.546,268.533,54.299,263.239,49.387z M254.039,66.427c-3.496,10.402-10.513,19.258-19.84,25.04
			c-9.327-5.782-16.344-14.638-19.84-25.04c-0.516-1.961,0.137-4.044,1.68-5.36v0.08c1.11-1.26,2.651-2.059,4.32-2.24
			c2.984,0.632,5.616,2.377,7.36,4.88c2.56,3.601,7.555,4.445,11.156,1.884c0.729-0.518,1.366-1.155,1.884-1.884
			c1.75-2.497,4.379-4.24,7.36-4.88c1.669,0.181,3.21,0.98,4.32,2.24C253.923,62.467,254.541,64.507,254.039,66.427z"/>
	</g>
</g>
<g>
	<g>
		<path d="M188.566,132.848c-0.147-0.065-0.296-0.125-0.447-0.18l-93.92-36.96c-3.931-1.473-8.332,0.343-10.08,4.16l-25.52,65.04
			l-9.04,23.12c-10.528,27.086,0.491,57.79,25.84,72l-37.92,96.32l-26.88-10.56c-4.179-1.435-8.729,0.79-10.164,4.969
			c-1.348,3.925,0.53,8.229,4.324,9.911l34.32,13.52l34.32,13.68c4.179,1.435,8.729-0.79,10.164-4.969
			c1.348-3.925-0.53-8.229-4.324-9.911l-27.12-10.8l37.52-95.6c28.404,7.046,57.613-8.142,68.16-35.44l23.68-59.28l11.2-28.48
			C194.454,139.341,192.613,134.622,188.566,132.848z M143.159,225.387c-8.193,21.984-32.657,33.163-54.641,24.97
			c-21.984-8.193-33.163-32.657-24.97-54.641c0.181-0.487,0.372-0.97,0.571-1.45l7.04-17.84h91.2L143.159,225.387z M168.679,160.427
			h-91.28l18.4-46.88l79.04,31.04L168.679,160.427z"/>
	</g>
</g>
<g>
	<g>
		<path d="M391.55,350.271c-1.682-3.794-5.986-5.672-9.911-4.324v-0.16l-26.88,10.56l-37.52-95.6
			c25.349-14.21,36.368-44.914,25.84-72l-9.04-23.12l-25.92-65.76c-1.63-4.107-6.28-6.115-10.387-4.485
			c-0.004,0.002-0.009,0.004-0.013,0.005l-93.6,37.28c-4.068,1.632-6.066,6.234-4.48,10.32l11.12,28.88l23.44,59.6
			c8.706,22.437,30.333,37.194,54.4,37.12c4.611-0.012,9.203-0.576,13.68-1.68l37.84,95.28l-26.88,10.56
			c-4.175,1.546-6.306,6.185-4.76,10.36c1.546,4.175,6.185,6.306,10.36,4.76l34.32-13.52l34.32-13.52
			C391.518,359.037,393.341,354.311,391.55,350.271z M217.319,144.587l79.04-31.04l18.4,46.88h-91.2L217.319,144.587z
			 M288.679,252.187l-0.08,0.08c-17.483,0.058-33.196-10.661-39.52-26.96l-19.2-48.96h91.28l7.04,17.84
			c8.527,21.904-2.316,46.573-24.22,55.101C299.101,251.187,293.914,252.17,288.679,252.187z"/>
	</g>
</g>
<g>
</g>
<g>
</g>
<g>
</g>
<g>
</g>
<g>
</g>
<g>
</g>
<g>
</g>
<g>
</g>
<g>
</g>
<g>
</g>
<g>
</g>
<g>
</g>
<g>
</g>
<g>
</g>
<g>
</g>
</svg>
