<?xml version="1.0" encoding="UTF-8" standalone="no"?> <svg xmlns="http://www.w3.org/2000/svg" fill="#a786be" viewBox="0 0 32 32"><title>Church</title><g id="Church"><path d="M28.342,18.553,24,16.382V14.489l.386.3A.989.989,0,0,0,25,15a1,1,0,0,0,.615-1.789L17,6.511V5h1a1,1,0,0,0,0-2H17V2a1,1,0,0,0-2,0V3H14a1,1,0,0,0,0,2h1V6.511l-8.614,6.7a1,1,0,0,0,1.228,1.578l.386-.3v1.893L3.658,18.553A2.985,2.985,0,0,0,2,21.236V29a1,1,0,0,0,1,1H29a1,1,0,0,0,1-1V21.236A2.985,2.985,0,0,0,28.342,18.553ZM4,28V21.236a.993.993,0,0,1,.553-.894L8,18.618V28Zm10,0V23a2,2,0,0,1,4,0v5Zm6,0V23a4,4,0,0,0-8,0v5H10V12.933l6-4.666,6,4.666V28Zm8,0H24V18.618l3.447,1.724a.993.993,0,0,1,.553.894Z"/><path d="M16,11a3,3,0,1,0,3,3A3,3,0,0,0,16,11Zm0,4a1,1,0,1,1,1-1A1,1,0,0,1,16,15Z"/></g></svg>