<?xml version="1.0" encoding="UTF-8" standalone="no"?> <svg xmlns="http://www.w3.org/2000/svg" viewBox="0 0 64 64"><g id="Layer_33" data-name="Layer 33"><path d="M36.39,35.55a.5.5,0,0,0,.33-.88c-1.8-1.55-5.56-4.34-11.48-8.54a.5.5,0,0,0-.58.82C30.8,31.18,34.15,34.06,36.39,35.55Z"/><path d="M40.86,39.12a.5.5,0,0,0,.18-1A60.38,60.38,0,0,1,24.36,28c-.5-.42-1.14.37-.64.78A59.58,59.58,0,0,0,40.86,39.12Z"/><path d="M33.6,21.56a.5.5,0,0,0,.39.81.51.51,0,0,0,.39-.18,18.64,18.64,0,0,1,8.54-6.29.5.5,0,0,0-.32-1A19.7,19.7,0,0,0,33.6,21.56Z"/><path d="M42.68,17.37A13,13,0,0,0,37,19.86a.5.5,0,0,0,.3.9c1.81-1.06,3.58-2.18,5.51-2.41A.5.5,0,0,0,42.68,17.37Z"/><path d="M33.19,49.78a.5.5,0,0,0,.1,1c5.71-1.08,9.54-2.47,11.3-4,.5-.42-.19-1.18-.66-.74C42.3,47.43,38.69,48.7,33.19,49.78Z"/><path d="M36.33,37.84a53.18,53.18,0,0,1-11-7.63c-.47-.45-1.16.31-.68.74a50.73,50.73,0,0,0,11.44,7.83A.5.5,0,0,0,36.33,37.84Z"/><path d="M26.27,25.28c5.68,3.56,9.83,7.53,14.2,11.43a.5.5,0,0,0,.36-.85,81.8,81.8,0,0,0-14-11.42A.5.5,0,0,0,26.27,25.28Z"/><path d="M43.94,55.69c-5.87,1.69-13.07,1.9-21.37.63a.5.5,0,0,0-.16,1,67.05,67.05,0,0,0,10.22.84,42,42,0,0,0,11.59-1.49A.5.5,0,0,0,43.94,55.69Z"/><path d="M44.54,51.32c-5.95,3.74-14.47,4.4-25.33,2a.5.5,0,0,0-.22,1c8.91,2,19,2.44,26.09-2.09A.5.5,0,0,0,44.54,51.32Z"/><path d="M19.69,49.44c6.9.79,12.6-.31,20.8-2.73a.5.5,0,0,0-.3-1c-8.19,2.55-15,3.45-20.36,2.69A.51.51,0,0,0,19.69,49.44Z"/><path d="M44.31,48.39c-9.26,3.92-17.71,4.67-25.1,2.23a.5.5,0,0,0-.32.94C27.56,54.3,35.68,53,44.7,49.31A.5.5,0,0,0,44.31,48.39Z"/><path d="M23,42.63A18.27,18.27,0,0,0,33.52,41a.51.51,0,0,0,.2-.68.5.5,0,0,0-.67-.21,17,17,0,0,1-9.95,1.54A.5.5,0,0,0,23,42.63Z"/><path d="M21.9,44.69A18.9,18.9,0,0,0,36.63,42.2a.5.5,0,0,0-.54-.85,17.88,17.88,0,0,1-14,2.37A.5.5,0,0,0,21.9,44.69Z"/><path d="M23.07,46.8a61.18,61.18,0,0,0,18.31-3.19.5.5,0,0,0-.3-1A58.79,58.79,0,0,1,21.9,45.78a.53.53,0,0,0-.51.49C21.45,47.07,22.52,46.71,23.07,46.8Z"/><path d="M24.58,41.22A15.48,15.48,0,0,0,31,39.35a.5.5,0,1,0-.43-.9C27.43,40,25,40.52,23.26,40.05a.51.51,0,0,0-.62.35C22.53,41.32,23.93,41.13,24.58,41.22Z"/><path d="M50.6,14.28c0-4.84-1.15-7.56-3.39-8.32a19.23,19.23,0,0,1-5.7-1.69h0a14.61,14.61,0,0,0-1.6-.75c-5,0-10,0-15,0-.56.11-1.09.33-1.65.48l-.45.13h0q-3,.86-6.52,1.67c-1.91.77-3,3.16-3.3,7.38.37,4.26.17,11.45-.6,21.42,0,4.82-.72,12.27-2.25,22.14a.49.49,0,0,0,.47.58,24.9,24.9,0,0,1,5.11.62.5.5,0,0,0,.62-.43c.94-9,1.78-16.61,2.48-22.66a39.58,39.58,0,0,0,.81-10.25c.65,2.17,1,4.19,1.35,6.09.52,4,.4,7.52-.65,9.92C18,44.8,16.83,50.06,17,56.19c-.11,2.19,3.63,3.44,12.11,4.05,6,.69,15.74.33,17.86-3.69a12.7,12.7,0,0,0,.15-2.4c.11,1.16.22,2.3.3,3.37a.5.5,0,0,0,.41.45c2,.39,4.41.29,5.79-.9C52.32,44.56,50.36,28.57,50.6,14.28ZM44.8,22.5a.31.31,0,0,0,0,.1h0v0a67.3,67.3,0,0,0-2.37,10.11,32.32,32.32,0,0,1-5.3-4.64,14.92,14.92,0,0,0,4.61-1.61.5.5,0,1,0-.48-.88,13.82,13.82,0,0,1-4.93,1.6,53.58,53.58,0,0,1-4.12-5.37,66.09,66.09,0,0,0,9.84-10C44.06,15.75,45,19.32,44.8,22.5ZM22,30.59a54.72,54.72,0,0,0-2-8.32c.11-.65.25-1.32.41-2,.47,1.29.77,1.91,1.17,2.14.56.32,1.08-.55.51-.86a14.71,14.71,0,0,1-1.2-3c.18-.58.38-1.15.6-1.7,3.23,3,6.59,6.59,10.4,9.41a.51.51,0,0,0,.33-.88c-3.67-3.16-7.13-6.36-10.31-9.51a10.11,10.11,0,0,1,.48-.93,27.08,27.08,0,0,1,7.33,7.66.5.5,0,1,0,.82-.56,27.68,27.68,0,0,0-7.63-7.95,6.3,6.3,0,0,1,.85-1,7,7,0,0,0,1,1A91.06,91.06,0,0,1,31.11,22h0c3.56,5.2,7.15,9.33,11.2,11.78a11.3,11.3,0,0,0,.29,4.74q.49,1.51.93,2.91C31.86,37.84,24.61,34.19,22,30.59ZM25,4.52c4.89,0,9.86,0,14.75,0,.4.18.76.43,1.15.58,1.18,2.17,1.44,4,.79,5.61A66.49,66.49,0,0,1,31.64,21a96.22,96.22,0,0,0-6.16-7.59C23.31,11.64,22.65,8.88,23.43,5ZM18.66,18.77h0v0h0a23,23,0,0,1-1-5.85.5.5,0,1,0-1,0,24.25,24.25,0,0,0,1,6.12h0v0c1.32,4.35,1.38,9.59.17,15.62-.69,6-1.51,13.42-2.43,22.15a26.91,26.91,0,0,0-4.19-.5c1.49-9.65,2.22-17,2.18-21.7.77-10,1-17.23.6-21.46.27-3.68,1.17-5.85,2.6-6.43,2-.46,3.92-.94,5.71-1.44a10.09,10.09,0,0,0,.86,7C21.33,14,20,17.54,19.33,20.62A19.38,19.38,0,0,1,18.66,18.77ZM46,56.26c-2.27,2.77-7.93,3.77-16.82,3C19,58.52,18,56.9,18,56.19c-.2-6,.88-11,3.23-15.14a18.1,18.1,0,0,0,.94-8.69c3.4,3.48,10.52,6.84,21.68,10.22C45.75,48.81,46.47,53.42,46,56.26ZM44.77,42h0c-.37-1.21-.77-2.48-1.23-3.85-.72-1.91-.28-6.08,1.2-11.71a77.42,77.42,0,0,0,0,8.22c.83,5.68,1.5,10.84,2,15.41A68.66,68.66,0,0,0,44.77,42Zm3.65,15c-.5-6.11-1.41-13.67-2.7-22.46-.3-4,.16-8.41.07-11.92a0,0,0,0,0,0,0A59.4,59.4,0,0,0,47.25,12.3a.5.5,0,1,0-1-.08c-.2,2.58-.43,4.73-.69,6.49a26.62,26.62,0,0,0-2.87-7.79,6.82,6.82,0,0,0-.34-5.2,18.88,18.88,0,0,0,4.59,1.2c1.73.63,2.62,3.11,2.66,7.36a284.69,284.69,0,0,0,3.19,42.18A6.1,6.1,0,0,1,48.42,57.05Z"/></g></svg>