<?xml version="1.0" encoding="UTF-8" standalone="no"?> <svg xmlns="http://www.w3.org/2000/svg" viewBox="0 0 64 64"><g id="Layer_21" data-name="Layer 21"><path d="M43.83,21.23a.5.5,0,0,0-.48-.36H35.49a.51.51,0,0,0-.46.51v8.93a.5.5,0,0,0,.5.5h7.82a.5.5,0,0,0,.5-.5V21.38a.26.26,0,0,0,0-.15Zm-2.14.64-2.31,1.52-2.23-1.52Zm1.16,7.94H36V22.32l3.07,2.09a.5.5,0,0,0,.56,0l3.19-2.11Z"/><path d="M54.78,37.65c-1.3-6.3-3.59-15-6.79-25.92-.08-1.94-3.35-3.67-10.27-5.43A4.88,4.88,0,0,0,34.9,3.65a39.09,39.09,0,0,1-5.84-.15H29a2.9,2.9,0,0,0-1.33.56l0,0a4.5,4.5,0,0,0-1.15,1.39l-.9.39a.05.05,0,0,0,0,0,93.73,93.73,0,0,0-8.58,4.18c-1.32,2.26-2,5.24-2.92,8.6-1.58,3.7-2.89,10.32-3.89,19.67A85.75,85.75,0,0,0,9.22,53a22.14,22.14,0,0,0,.21,3.54c.4.56,1.61,1.17,7.43,1.41h0a.49.49,0,0,0,.36-.14h0a.49.49,0,0,0,.15-.35c0-3,.31-8.15,1-15.38,0,4.67-.4,9.34-.31,13.83,1.89,2.67,5.72,4.17,11.39,4.47l1.65.1h.09l1.26,0h.1c6,.15,11.17-1.27,13.58-4.08.32-1.53-.09-4.08,0-6.7,0,.69.08,1.36.13,2v.07c.09,1.52.18,3,.25,4.42a.52.52,0,0,0,.45.47c3.82.4,6.2,0,7.27-1.14.6-7,.43-13.36.53-17.85A.13.13,0,0,0,54.78,37.65ZM36.89,6.86c.24,2.13-.53,4.36-2.29,6.65-.52-.54-.93-.95-1.24-1.26,2.16-1.57,3.16-3.41,3-5.43h0a.35.35,0,0,0,0-.18,5,5,0,0,0-.18-.92A5.26,5.26,0,0,1,36.89,6.86ZM29.07,4.5a38.29,38.29,0,0,0,5.58.16,6,6,0,0,1,.61,1.57c-2-.13-4.29-.18-6.53-.17-.09-.41-.18-.86-.26-1.34A1.89,1.89,0,0,1,29.07,4.5ZM27.25,6.12a4.45,4.45,0,0,1,.35-.58c.71,3.69,1.61,5.84,2.8,6.61a13.42,13.42,0,0,1-1.46,1.2,46,46,0,0,1-2.6-6.72C26.64,6.46,27.06,6.43,27.25,6.12ZM16.38,56.9l-1.31-.07c-3.54-.24-4.49-.64-4.75-.82q-.06-1.3-.09-2.58c2.14,0,4.23.15,6.25.34C16.42,55,16.39,56,16.38,56.9Zm14.35,2.53-1.16-.08c-5.25-.28-8.79-1.59-10.54-3.91.35-7.39.49-15,.4-22.68a110.67,110.67,0,0,0,0-16.58.5.5,0,1,0-1,.07,110.86,110.86,0,0,1,.05,16.39c-1,8.7-1.64,15.46-1.91,20.13-2-.19-4.16-.3-6.32-.34a83.76,83.76,0,0,1,.9-13.93v0h0C12.1,29.21,13.38,22.68,15,19a51.18,51.18,0,0,1,2.62-8.12C19.81,9.62,22.45,8.33,25.42,7a39.89,39.89,0,0,0,2.92,7.3.49.49,0,0,0,.71.16,18,18,0,0,0,1.68-1.29Zm1.34,0h-.34V12.7h.34Zm.35-47.78h-.76a.53.53,0,0,0-.36-.25c-.54-.09-1.48-.84-2.35-4.39,2.33,0,4.49.05,6.43.18C35.38,8.88,34.4,10.36,32.42,11.7Zm21,43.3c-.63.56-2.18,1.09-5.87.75q-.09-1.74-.21-3.57A24.68,24.68,0,0,1,53.5,52C53.47,53,53.43,54,53.39,55Zm.14-4a25.38,25.38,0,0,0-6.28.14c-.36-5.71-.83-12-1.43-18.9-.29-6.18-.32-12-.08-17.32a.5.5,0,0,0-1,0c-.24,5.34-.21,11.2.08,17.4.2,11.44.36,19.16.49,23.57-2.3,2.43-6.44,3.6-12.24,3.61V13.37c.37.25,1,1.31,1.58,1.39a.51.51,0,0,0,.37-.18,10.88,10.88,0,0,0,2.91-7.2C45.77,9.43,47,11,47,11.8c3.13,10.85,5.53,19.73,6.81,26C53.79,41.35,53.71,45.79,53.53,51Z"/></g></svg>